<svg viewBox="0 0 96 96" xmlns="http://www.w3.org/2000/svg" xmlns:xlink="http://www.w3.org/1999/xlink" id="Icons_SportsField" overflow="hidden"><path d="M6 22 6 73 90.006 73 90.006 22ZM50.006 41.35C53.1264 42.4487 54.7653 45.869 53.6666 48.9894 53.0639 50.7011 51.7177 52.0473 50.006 52.65ZM46.006 52.65C42.8856 51.5513 41.2467 48.131 42.3454 45.0106 42.9481 43.2989 44.2943 41.9527 46.006 41.35ZM46.006 37.202C40.5936 38.301 37.0969 43.5796 38.196 48.992 38.9951 52.9273 42.0707 56.0029 46.006 56.802L46.006 69 10 69 10 62 24 62 24 33 10 33 10 26 46.006 26ZM10 42 10 37 20 37 20 58 10 58 10 52 15 52 15 42ZM86.006 33 72.006 33 72.006 62 86.006 62 86.006 69 50.006 69 50.006 56.8C55.4184 55.701 58.9151 50.4224 57.816 45.01 57.0169 41.0747 53.9413 37.9991 50.006 37.2L50.006 26 86.006 26ZM86.006 52 86.006 58 76.006 58 76.006 37 86.006 37 86.006 42 81.006 42 81.006 52Z"/></svg>