<svg viewBox="0 0 96 96" xmlns="http://www.w3.org/2000/svg" xmlns:xlink="http://www.w3.org/1999/xlink" id="Icons_SoccerGoal" overflow="hidden"><path d="M86.447 19.116C86.2308 19.0422 86.0035 19.006 85.775 19.009L85.115 19 10.128 19 9.763 19.008C8.67393 18.9991 7.78386 19.8748 7.77496 20.9638 7.77487 20.9759 7.77488 20.9879 7.775 21L7.775 65C7.77504 66.1046 8.6705 67 9.77507 66.9999 10.0854 66.9999 10.3914 66.9277 10.669 66.789L22.248 61 32.614 61C32.9223 59.6045 33.4224 58.2583 34.1 57L29.7 57 29.7 52.242 36.128 52.242 36.128 54.11C36.446 53.749 36.778 53.402 37.128 53.072L37.128 52.242 38.069 52.242C38.517 51.8832 38.9843 51.5494 39.469 51.242L37.132 51.242 37.132 46.367 43.561 46.367 43.561 49.4C43.891 49.306 44.222 49.215 44.561 49.143L44.561 46.367 50.989 46.367 50.989 49.114C51.329 49.184 51.658 49.28 51.989 49.372L51.989 46.367 58.417 46.367 58.417 51.242 56.191 51.242C56.6757 51.5494 57.143 51.8832 57.591 52.242L58.413 52.242 58.413 52.964C58.7617 53.2867 59.095 53.625 59.413 53.979L59.413 52.242 65.842 52.242 65.842 57 61.568 57C62.2456 58.2583 62.7457 59.6045 63.054 61L73.3 61 84.88 66.789C85.8678 67.2833 87.0693 66.8832 87.5636 65.8954 87.7027 65.6174 87.7751 65.3109 87.775 65L87.775 21C87.7751 20.1544 87.2434 19.4001 86.447 19.116ZM21.275 37.279C20.968 36.379 20.626 35.479 20.264 34.593L21.275 34.593ZM21.275 33.593 19.853 33.593C19.175 32.019 18.4083 30.4603 17.553 28.917L21.271 28.917ZM28.7 57 23.775 57 23.775 52.242 28.7 52.242ZM28.7 51.242 23.757 51.242C23.7278 49.6117 23.6086 47.9842 23.4 46.367L28.7 46.367ZM28.7 45.367 23.262 45.367C23.016 43.7699 22.6865 42.1867 22.275 40.624L22.275 40.45 28.7 40.45ZM28.7 39.455 22.275 39.455 22.275 34.593 28.7 34.593ZM28.7 33.593 22.275 33.593 22.275 28.917 28.7 28.917ZM36.128 51.242 29.7 51.242 29.7 46.367 36.128 46.367ZM36.128 45.367 29.7 45.367 29.7 40.449 36.128 40.449ZM36.128 39.454 29.7 39.454 29.7 34.593 36.128 34.593ZM36.128 33.593 29.7 33.593 29.7 28.917 36.128 28.917ZM43.557 45.367 37.132 45.367 37.132 40.448 43.561 40.448ZM43.557 39.454 37.132 39.454 37.132 34.593 43.561 34.593ZM43.557 33.593 37.132 33.593 37.132 28.917 43.561 28.917ZM50.985 45.367 44.561 45.367 44.561 40.448 50.989 40.448ZM50.985 39.453 44.561 39.453 44.561 34.593 50.989 34.593ZM50.985 33.593 44.561 33.593 44.561 28.917 50.989 28.917ZM58.413 45.367 51.989 45.367 51.989 40.447 58.417 40.447ZM58.413 39.452 51.989 39.452 51.989 34.592 58.417 34.592ZM58.413 33.593 51.989 33.593 51.989 28.917 58.417 28.917ZM65.842 51.242 59.417 51.242 59.417 46.367 65.846 46.367ZM65.842 45.367 59.417 45.367 59.417 40.446 65.846 40.446ZM65.842 39.451 59.417 39.451 59.417 34.593 65.846 34.593ZM65.842 33.593 59.417 33.593 59.417 28.917 65.846 28.917ZM71.775 57 66.846 57 66.846 52.242 71.775 52.242ZM71.793 51.242 66.846 51.242 66.846 46.367 72.146 46.367C71.9383 47.9842 71.8204 49.6117 71.793 51.242ZM73.275 40.624C72.863 42.1866 72.5335 43.7698 72.288 45.367L66.846 45.367 66.846 40.445 73.275 40.445ZM73.275 39.45 66.846 39.45 66.846 34.593 73.275 34.593ZM73.275 33.593 66.846 33.593 66.846 28.917 73.275 28.917ZM74.275 37.279 74.275 34.593 75.286 34.593C74.924 35.484 74.582 36.379 74.275 37.279ZM74.275 33.593 74.275 28.917 77.993 28.917C77.1443 30.459 76.3777 32.0177 75.693 33.593ZM83.775 27.05 83.775 61.764 75.775 57.764 75.775 53.064 81.775 55.692 81.775 54.6 75.775 51.972C75.7779 50.2935 75.8827 48.6168 76.089 46.951L81.775 48.494 81.775 47.458 76.227 45.958C76.491 44.1829 76.8688 42.4266 77.358 40.7L81.775 41.368 81.775 40.355 77.647 39.732C78.1871 37.9812 78.8336 36.265 79.583 34.593L81.775 34.593 81.775 33.593 80.051 33.593C80.5777 32.485 81.1523 31.385 81.775 30.293L81.775 25 80.37 25C79.737 25.965 79.124 26.936 78.558 27.917L74.275 27.917 74.275 25 73.275 25 73.275 27.917 66.846 27.917 66.846 25 65.846 25 65.846 27.917 59.417 27.917 59.417 25 58.417 25 58.417 27.917 51.989 27.917 51.989 25 50.989 25 50.989 27.917 44.561 27.917 44.561 25 43.561 25 43.561 27.917 37.132 27.917 37.132 25 36.132 25 36.132 27.917 29.7 27.917 29.7 25 28.7 25 28.7 27.917 22.275 27.917 22.275 25 21.275 25 21.275 27.917 16.992 27.917C16.426 26.936 15.813 25.965 15.18 25L13.78 25 13.78 30.29C14.402 31.384 14.9767 32.484 15.504 33.59L13.775 33.59 13.775 34.59 15.967 34.59C16.7156 36.2636 17.3612 37.9815 17.9 39.734L13.772 40.372 13.772 41.382 18.189 40.696C18.6833 42.4412 19.0637 44.2166 19.328 46.011L13.772 47.519 13.772 48.555 19.465 47.01C19.6699 48.6655 19.7735 50.3319 19.775 52L19.775 52.071 13.775 54.699 13.775 55.791 19.775 53.163 19.775 57.763 11.775 61.763 11.775 23 83.775 23Z"/><path d="M47.834 50.793C40.3229 50.793 34.234 56.8819 34.234 64.393 34.234 71.9041 40.3229 77.993 47.834 77.993 55.3451 77.993 61.434 71.9041 61.434 64.393 61.434 56.8819 55.3451 50.793 47.834 50.793ZM59.407 65C59.3047 67.0455 58.6592 69.0268 57.537 70.74L57.315 69.861 52.682 71.1 50.073 75.123 50.822 75.595C48.8626 76.1357 46.7934 76.1357 44.834 75.595L45.578 75.126 42.969 71.1 38.336 69.861 38.119 70.72C37.008 69.0171 36.3673 67.0506 36.262 65.02L36.947 65.59 39.967 61.866 39.713 57.077 38.798 57.138C40.0879 55.5378 41.7785 54.3078 43.698 53.573L43.353 54.435 47.829 56.156 52.3 54.432 51.952 53.563C53.8792 54.2968 55.5765 55.53 56.87 57.136L55.937 57.074 55.683 61.863 58.703 65.587Z"/><path d="M43.35 63.727 45.071 68.892 47.826 68.892 50.58 68.892 52.301 63.727 47.826 60.285 43.35 63.727Z"/></svg>