<svg viewBox="0 0 96 96" xmlns="http://www.w3.org/2000/svg" xmlns:xlink="http://www.w3.org/1999/xlink" id="Icons_Stadium" overflow="hidden"><path d="M79.5 30.075 79.5 24.415 88 20.556 79.483 15.929C79.3616 15.1095 78.5988 14.5436 77.7793 14.6651 77.0621 14.7714 76.5236 15.3754 76.5 16.1L76.5 29.561C67.5518 28.3227 58.5331 27.6616 49.5 27.582L49.5 21.415 58 17.556 49.483 12.929C49.3616 12.1095 48.5988 11.5436 47.7793 11.6651 47.0621 11.7714 46.5236 12.3754 46.5 13.1L46.5 27.58C41.974 27.633 28.461 27.957 17.5 29.891L17.5 24.415 26 20.556 17.483 15.929C17.3616 15.1095 16.5988 14.5436 15.7793 14.6651 15.0621 14.7714 14.5236 15.3754 14.5 16.1L14.5 30.479C7.4 32.015 2 34.363 2 37.952 1.99996 38.0706 2.00597 38.189 2.018 38.307L4.1 72.593C4.227 81.694 30.4 85 48 85 65.6 85 91.773 81.694 91.9 72.593L93.978 38.307C93.9914 38.1891 93.9987 38.0706 94 37.952 94 34.032 87.561 31.594 79.5 30.075ZM35.984 80.561C32.315 80.284 28.984 79.889 26.016 79.413L26.016 68.98C26.016 66.2296 28.2456 64 30.996 64 30.9973 64 30.9987 64 31 64L31 64C33.7504 64 35.98 66.2296 35.98 68.98ZM47.764 31.572C47.9197 31.604 48.0803 31.604 48.236 31.572 51.344 31.572 54.2907 31.63 57.076 31.746L53.16 44.277C51.491 44.313 49.774 44.333 48 44.333 46.226 44.333 44.509 44.313 42.84 44.277L38.924 31.746C41.708 31.636 44.6547 31.578 47.764 31.572ZM57.392 44.146 61.2 31.951C66.2931 32.232 71.3684 32.7741 76.406 33.575L68.329 43.385C65.037 43.718 61.389 43.982 57.392 44.146ZM38.608 44.146C34.608 43.982 30.963 43.718 27.668 43.385L19.591 33.575C24.6296 32.774 29.7059 32.2319 34.8 31.951ZM65 64 65 64C67.7504 64 69.98 66.2296 69.98 68.98L69.98 79.413C67.009 79.889 63.68 80.284 60.012 80.561L60.012 68.98C60.012 66.2296 62.2416 64 64.992 64 64.9947 64 64.9973 64 65 64ZM89.968 37.952C89.199 39.333 83.738 41.303 74.088 42.688L80.888 34.425C86.309 35.609 89.4 36.939 89.968 37.952ZM15.109 34.425 21.909 42.688C12.262 41.3 6.8 39.333 6.032 37.952 6.6 36.939 9.691 35.609 15.109 34.425ZM43.016 80.925 43.016 69.98C43.016 67.2296 45.2456 65 47.996 65 47.9973 65 47.9987 65 48 65L48 65C50.7504 65 52.98 67.2296 52.98 69.98L52.98 80.927C51.3727 80.9757 49.7127 81 48 81 46.2873 81 44.626 80.9757 43.016 80.927Z"/></svg>